<?xml version="1.0" encoding="utf-8"?>
<!-- Generator: Adobe Illustrator 16.0.0, SVG Export Plug-In . SVG Version: 6.00 Build 0)  -->
<!DOCTYPE svg PUBLIC "-//W3C//DTD SVG 1.1//EN" "http://www.w3.org/Graphics/SVG/1.1/DTD/svg11.dtd">
<svg version="1.1" id="Слой_1" xmlns="http://www.w3.org/2000/svg" xmlns:xlink="http://www.w3.org/1999/xlink" x="0px" y="0px"
	 width="1000px" height="294.5px" viewBox="0 0 1000 294.5" enable-background="new 0 0 1000 294.5" xml:space="preserve">
<g id="_x23_ff7316ff">
	<path fill="#FF7316" d="M152.88,9.76c1.67-2.9,1.58-6.45,2.28-9.66c0.85,3.3,0.37,7.3,2.67,10.05c2.89,1.72,6.48,1.59,9.69,2.3
		c-3.24,0.75-6.87,0.57-9.76,2.4c-2.16,2.79-1.76,6.68-2.6,9.96c-0.71-3.22-0.56-6.82-2.35-9.69c-2.81-2.19-6.74-1.84-10.07-2.65
		C146.09,11.66,150.1,12.07,152.88,9.76z"/>
	<path fill="#FF7316" d="M167.59,29.21c1.25,4.77,0.64,10.4,3.72,14.48c4.16,2.8,9.55,2.41,14.29,3.53
		c-4.81,1.18-10.49,0.59-14.54,3.79c-2.68,4.19-2.3,9.52-3.47,14.229c-0.74-4.18-1-8.49-2.39-12.53c-0.62-1.88-2.41-3.02-4.25-3.45
		c-3.72-0.94-7.53-1.36-11.29-2.04c3.83-0.7,7.74-1.06,11.51-2.08c2.01-0.45,3.72-1.97,4.24-4
		C166.55,37.26,166.89,33.19,167.59,29.21z"/>
	<path fill="#FF7316" d="M114.81,43.46c1.17,6.13,1.65,12.42,3.41,18.43c0.77,2.85,3.06,5.12,5.91,5.87
		c6.02,1.77,12.31,2.27,18.46,3.45c-6.23,1.18-12.64,1.62-18.71,3.49c-2.93,0.81-5.04,3.33-5.75,6.22
		c-1.61,5.94-2.21,12.1-3.31,18.15c-1.06-6.01-1.64-12.13-3.23-18.03c-0.71-3.01-2.97-5.58-6.01-6.38
		c-6.05-1.75-12.36-2.31-18.54-3.45c5.99-1.08,12.09-1.67,17.98-3.24c2.89-0.72,5.42-2.81,6.25-5.73
		C113.15,56.14,113.62,49.71,114.81,43.46z"/>
	<path fill="#FF7316" d="M80.92,84.39c5.87-0.95,11.01-4.09,15.81-7.4c0.41,5.06-0.23,10.91-4.46,14.32
		c-5.96,4.87-14.13,3.79-21.25,4.89c-1.85,0.03-2.62,2.68-0.77,3.41c3.31,1.23,6.48-1.45,9.77-1.73c1.81-0.56,2.82,1.2,3.52,2.5
		c-4.75-1.37-7.16,3.56-9.63,6.59c-1.68,2.59-4.88,3.77-7.88,3.35c-5.4-0.65-10.14-3.6-15.26-5.23c0.59-7.89,5.81-15.11,13.09-18.19
		C69.2,84.36,75.28,85.57,80.92,84.39z"/>
	<path fill="#FF7316" d="M133,93.03c-3.22-3.56-2.38-8.76-1.05-12.94c2.93,2.82,5.94,5.69,9.66,7.44c4.17,2.14,8.89,2.59,13.34,3.88
		c7.78,2.53,13.12,11.05,11.42,19.18c-5.58,0.57-11.19,3.15-16.83,1.69c-5.62-1.53-4.28-10.96-11-10.65
		c3.09-3.78,7.02,0.84,10.45,1.56c1.69,0.81,4.26-2,1.92-2.88C144.94,98.01,137.6,98.11,133,93.03z"/>
	<path fill="#FF7316" d="M23.84,108.85c7.8-10.66,20.35-16.61,32.84-19.84c-3.93,4.82-8.07,9.81-9.54,16.01
		c-1.73,6.29,0.84,13,5.13,17.66c6.37,6.99,14.91,11.38,22.99,16.06c5.32,3.119,11.11,5.939,15.03,10.859
		c2.95,3.75,5.2,8.061,8.73,11.34c9.47,9.17,23.12,12.271,32.51,21.551c3.37,3.18,5.8,7.189,7.93,11.279
		c1.86-6.449,4.06-12.959,4.08-19.75c0.04-5.06-1.99-9.789-3.89-14.369c3.55-4.49,7.92-8.18,12.41-11.68
		c10.06-8.4,18-20.551,18.41-33.971c0.31-7.5-3.15-14.65-8.39-19.86c8.52,1.98,17.82,4.11,23.98,10.82
		c5.21,5.63,5.92,13.75,5.65,21.06c0.33,2.81-1.32,6.68,1.22,8.7c2.57-0.71,3.45-3.35,4.58-5.44c5.98,6.33,9.67,14.93,9.39,23.701
		c-0.31,16.319-8.4,31.74-19.88,43.029c-10.5,10.461-24.66,16.4-34.7,27.37c-3.7,3.89-6.28,8.64-8.53,13.47
		c1.5-11.149,6.52-21.66,13.99-30.05c6.52-7.79,14.95-13.92,20.53-22.5c2.83-4.2,3.84-9.26,3.93-14.25
		c-2.12,3.64-5.17,6.86-9.59,7.351c6.27-8.68,9.96-20.09,5.88-30.521c-1.02,3.31-2.08,6.69-4.11,9.54
		c-6.48,9.42-16.27,15.88-23.11,24.98c-4.93,6.82-3.73,15.72-4.46,23.629c-1.39,15.25-5.75,30.58-14.59,43.25
		C123.53,260.92,110.52,270.08,96.49,276h-0.02c4.49-9.689,6.74-20.26,8.15-30.79c1.02-8.979,1.61-18.19-0.22-27.101
		c-1.43-6.77-6.3-11.93-10-17.529c-4.57-6.75-7.78-14.29-10.51-21.93c-3.02,6.5-4.17,13.6-3.45,20.74
		c-4.63-5.391-4.37-12.99-7.85-18.98c-4.19-7.881-12.01-12.83-19.77-16.71c2.38,4.37,4.15,9.22,3.62,14.271
		c0,8.369-2.93,17.809,2.29,25.25c8.69,12.059,25.55,14.789,33.68,27.439c3.91,5.84,3.34,13.21,1.97,19.77
		c-1.28-8.43-7.8-15.279-15.53-18.42c-12.71-5.26-26.8-5.99-39.46-11.439c-11.95-5-23.51-12.16-31.08-22.91
		C3.24,190.6,0.57,182.04,0,173.41v-4.96c0.29-5.261,1.23-10.47,2.5-15.58c2.62,5.05,4.74,10.7,9.28,14.399
		c3.12,2.621,8.01,3.271,11.44,0.881c2.45-1.891,2.64-5.32,2.32-8.141c-0.88-7.109-4.13-13.59-6.38-20.32
		C15.74,129.44,17.32,117.55,23.84,108.85z"/>
	<path fill="#FF7316" d="M112.18,116.13c8.06-3.68,18.25-5.34,26.19-0.49c3.47,2.02,7.52,3.59,9.88,7.01
		c1.73,2.45,1.21,5.54,0.85,8.31c-6.17-6.12-19.11-2.97-20.39,6.08c-1.03,7.5,2.97,14.39,6.66,20.59
		c2.74,4.54,2.74,10.149,1.15,15.08c-9.31-5.84-20.43-7.351-30.26-11.97c-4.45-2.211-8.56-5.48-10.95-9.9
		c-0.3-5.51,1.83-11.04,5.41-15.2c4.13-4.84,9.66-8.19,15.22-11.15c2.67,0.99,5.34,1.99,8.01,2.99c2.25-1.76,3.83-4.32,3.14-7.28
		c-14.72-0.62-26.93,9.42-35.94,20C95.95,130.62,102.1,120.81,112.18,116.13z"/>
	<path fill="#FF7316" d="M972.47,129.92c1.07-4.76,1.601-9.63,2.57-14.41c1.69,6.42,0.91,13.92,4.92,19.51
		c5.59,4.08,13.14,3.3,19.62,5.05c-5.5,1.13-11.16,1.449-16.521,3.15c-2.64,0.739-4.479,3.069-5.109,5.659
		c-1.4,5.08-1.811,10.37-2.91,15.511c-1.23-5.391-1.46-11.011-3.17-16.301c-0.71-2.359-2.64-4.22-4.99-4.89
		c-5.37-1.65-11.01-2.04-16.49-3.13c5.73-1.23,11.721-1.44,17.28-3.44C970.51,135.62,971.88,132.68,972.47,129.92z"/>
	<path fill="#FF7316" d="M330.04,151.1c5.02-3.199,8.62-8.43,9.04-14.459c2.98,5.2,4.53,11.32,3.95,17.32
		c-0.16,3.66-2.94,6.36-5.31,8.819c-12.33,11.691-27.34,20.561-37.99,33.971c-4.13,5.04-7.06,12.66-2.66,18.43l-0.18,0.721
		c-2.71,0.39-5.45,0.17-8.18,0.189c-6.11-3.99-10.82-10.51-11.41-17.93c-0.85-7.95,3.21-15.71,9.25-20.67
		C299.6,166.46,315.88,160.43,330.04,151.1z"/>
	<path fill="#FF7316" d="M312.54,143.42c1.33,3.92,3.05,8.67,0.31,12.4c-2.83,3.209-6.45,5.619-9.87,8.13
		c-7.8,4.521-15.55,9.36-21.73,16.021c-1.86-4.49-1.46-9.98,2.05-13.57c7.07-7.2,17.09-10.19,25.14-16.03
		C310.77,148.75,311.82,146.04,312.54,143.42z"/>
	<path fill="#FF7316" d="M180.55,209.65c3.53-2.75,8.25-3.2,12.43-1.801c-3.69,0.801-7.07,2.75-9.41,5.73
		c-7.73,9.47-10.18,21.93-16.84,32.029c-3.85,5.781-13.27,8.531-18.59,3.261c-4.06-4.53-1.48-10.899,0.27-15.851
		c0.5,1.91,0.34,4.701,2.67,5.4c2.77,0.42,5.26-1.38,7.32-3.01C166.99,227.9,171.22,216.43,180.55,209.65z"/>
	<path fill="#FF7316" d="M18.68,228.609c7.41-3.84,16.48-3.959,23.97-0.239c12.21,6.14,23.11,14.72,35.79,19.979
		c3.91,1.66,9.61,3.07,12.11-1.51c0.33,3.29,0.05,6.83-2.27,9.41c-6.52,8.311-19.37,8.8-27.91,3.43
		c-11.12-6.949-18.78-17.92-28.57-26.42C28.21,230.02,23.46,228.57,18.68,228.609z"/>
</g>
<g id="_x23_898989ff">
	<path fill="#898989" d="M750.36,103.5c3.699,0,7.399,0,11.109,0c-0.01,1.03-0.01,2.07,0.011,3.1c-3.721,0.01-7.431,0-11.131,0
		C750.34,105.57,750.34,104.53,750.36,103.5z"/>
	<path fill="#898989" d="M663.9,107.88c2.29,0,4.59-0.01,6.899-0.02c0,2.65,0,5.29,0.01,7.94c4.971,0,9.95,0,14.931,0
		c0-2.64-0.01-5.28,0.01-7.92c2.29,0,4.59,0,6.9,0c-0.011,7.5,0.01,14.99-0.011,22.49c-2.31-0.01-4.6-0.01-6.89-0.02
		c-0.02-2.91-0.01-5.83-0.02-8.75c-4.98,0.01-9.95,0-14.921,0.01c-0.02,2.92,0,5.84-0.01,8.76c-2.31-0.01-4.609-0.01-6.899-0.02
		C663.9,122.86,663.89,115.37,663.9,107.88z"/>
	<path fill="#898989" d="M880.14,107.88c2.301,0,4.601,0,6.91,0c0.021,7.47-0.04,14.95,0.04,22.42c-2.32,0.05-4.63,0.05-6.939,0.08
		c-0.021-2.92-0.011-5.85-0.011-8.77c-4.979-0.02-9.949,0-14.92-0.01c-0.029,2.92-0.01,5.84-0.02,8.75
		c-2.3,0.01-4.601,0.01-6.891,0.02c-0.029-7.5,0-14.99-0.01-22.49c2.29,0,4.59,0,6.9,0c0.01,2.64-0.01,5.28,0.01,7.92
		c4.97,0,9.95,0,14.93,0C880.14,113.16,880.13,110.52,880.14,107.88z"/>
	<path fill="#898989" d="M241.72,107.88c4.13-0.01,8.26-0.01,12.4,0c2.08,5.18,5.54,9.91,6.29,15.54
		c1.31-5.51,4.41-10.36,6.61-15.54c3.92-0.01,7.85-0.01,11.78,0c-0.02,7.5,0.03,15-0.03,22.49c-2.3-0.01-4.59-0.01-6.88-0.02
		c-0.01-5.98-0.02-11.96,0.01-17.93c-2.75,6.02-5.66,11.97-8.52,17.94c-1.88,0-3.75,0-5.62,0c-3.14-6.02-6.24-12.06-9.33-18.1
		c0.36,6.03,0.14,12.07,0.19,18.1c-2.3,0-4.6,0-6.9,0C241.71,122.86,241.71,115.37,241.72,107.88z"/>
	<path fill="#898989" d="M284.4,107.92c2.31-0.04,4.62-0.03,6.93-0.06c0.01,2.64-0.01,5.29,0,7.93c4.98,0.01,9.96,0.02,14.93,0
		c0.01-2.64-0.01-5.28,0.01-7.92c2.3,0,4.6,0.01,6.9,0.01c0.01,7.49,0.01,14.98,0,22.47c-2.3,0.01-4.6,0.01-6.9,0.02
		c-0.02-2.92,0-5.84-0.01-8.76c-4.98-0.01-9.95-0.01-14.92,0c-0.02,2.91,0,5.83-0.01,8.75c-2.3,0-4.6,0-6.89,0
		C284.4,122.88,284.46,115.4,284.4,107.92z"/>
	<path fill="#898989" d="M323.39,108.47c6.11-1.27,12.44-1.01,18.63-0.58c2.72,0.15,6.31,0.89,6.59,4.21
		c0.69,5.41,1.48,11.55-1.11,16.56c-4.93,2.78-11.03,1.74-16.49,1.97c-3.53-0.33-8.32,0.5-10.56-2.97
		c-1.32-4.05-0.93-8.44-0.76-12.64C319.92,112.51,320.26,108.92,323.39,108.47 M328.48,113.76c-2.45,0.28-1.81,3.5-2.06,5.26
		c0.26,1.8-0.47,5.01,1.97,5.44c4.2,0.52,8.62,0.76,12.76-0.26c1.88-2.72,1.25-6.81,0.48-9.92
		C337.47,112.8,332.8,113.33,328.48,113.76z"/>
	<path fill="#898989" d="M353.88,107.88c7.48-0.01,14.96,0,22.45-0.01c0,1.94,0.01,3.87,0.02,5.81c-5.19,0.01-10.37,0-15.56,0.01
		c-0.01,5.56,0,11.11-0.01,16.67c-2.31,0-4.61,0-6.9-0.01C353.88,122.86,353.87,115.37,353.88,107.88z"/>
	<path fill="#898989" d="M383.47,108.66c7.31-1.61,15.06-1.43,22.43-0.23c3.9,0.69,3.69,5.5,3.97,8.54
		c-0.14,3.95,0.61,8.63-1.98,11.95c-5.56,2.51-11.97,1.53-17.91,1.66c-3.16-0.22-7.73,0.08-9.08-3.53
		c-1.01-4.27-0.76-8.76-0.42-13.1C380.76,111.95,381.15,109.26,383.47,108.66 M388.12,114.07c-1.76,3.05-0.89,6.87-0.37,10.17
		c4.82,0.83,9.77,0.83,14.59,0c0.61-3.01,1.01-6.15,0.24-9.17c-0.33-1.64-2.31-1.32-3.55-1.57
		C395.41,113.38,391.64,113.04,388.12,114.07z"/>
	<path fill="#898989" d="M415.6,107.88c9.79-0.01,19.58-0.01,29.38,0c-0.011,7.5,0.02,14.99-0.021,22.49
		c-2.3-0.01-4.59-0.01-6.88-0.01c-0.03-5.56,0-11.11-0.021-16.67c-5.18-0.01-10.369-0.01-15.55,0c-0.01,5.56,0,11.11-0.01,16.67
		c-2.3,0-4.6,0-6.9-0.01C415.59,122.86,415.59,115.37,415.6,107.88z"/>
	<path fill="#898989" d="M451.02,107.88c7.301,0.2,14.671-0.47,21.94,0.42c3.69,0.41,4.58,4.61,4.521,7.67
		c0.05,3.09-0.33,7.52-4.021,8.32c-5.11,1-10.36,0.38-15.53,0.55c-0.01,1.84-0.01,3.68-0.01,5.52c-2.31,0-4.61,0-6.9,0
		C451.01,122.86,451.01,115.37,451.02,107.88 M457.93,113.69c-0.02,1.78-0.01,3.56,0,5.34c3.67-0.07,7.36,0.21,11.021-0.15
		c2.229-0.35,2.25-4.63,0.05-5.03C465.32,113.47,461.61,113.75,457.93,113.69z"/>
	<path fill="#898989" d="M485.56,108.7c7.271-1.67,14.98-1.44,22.32-0.33c3.67,0.42,3.93,4.73,4.13,7.59
		c0.05,4.18,0.55,8.75-1.49,12.57c-2.619,2.07-6.27,1.78-9.42,2.07c-4.97-0.01-10.069,0.41-14.949-0.74
		c-4.57-1.42-3.49-7.17-3.75-10.86C482.76,115.59,481.82,110.44,485.56,108.7 M491.43,113.75c-1.779-0.04-1.87,1.92-2.02,3.23
		c-0.16,2.33-0.25,4.77,0.609,7c4.511,1.41,9.58,1.11,14.181,0.19c1.58-2.92,1.13-6.69,0.35-9.81
		C500.47,112.7,495.73,113.37,491.43,113.75z"/>
	<path fill="#898989" d="M532.06,107.88c2.28,0,4.57,0,6.86,0c0.01,0.55,0.04,1.65,0.05,2.2c3.82,0.16,7.771-0.47,11.511,0.51
		c4.06,1.62,4.68,6.69,4.22,10.48c-0.22,3.1-2.26,6.38-5.561,6.76c-3.38,0.35-6.79,0.13-10.18,0.16c-0.01,0.6-0.03,1.78-0.04,2.37
		c-2.29,0-4.58,0-6.86,0c-0.01-0.59-0.029-1.77-0.05-2.36c-4.84-0.5-11.62,1.8-14.64-3.3c-2.07-4.5-1.99-11.7,3.12-14.11
		c3.729-0.99,7.689-0.35,11.52-0.51C532.02,109.53,532.05,108.43,532.06,107.88 M524.2,116.21c-1.561,1.45-1.521,4.23-0.24,5.85
		c2.54,0.98,5.4,0.36,8.07,0.5c0-2.22,0-4.45,0-6.67C529.42,115.94,526.75,115.6,524.2,116.21 M538.94,115.89
		c0,2.22,0,4.45,0.01,6.67c2.66-0.16,5.54,0.5,8.069-0.51c1.221-1.61,1.37-4.46-0.279-5.82
		C544.2,115.57,541.53,115.96,538.94,115.89z"/>
	<path fill="#898989" d="M560.76,107.88c2.3,0,4.59-0.01,6.9,0c-0.22,6.1,0.57,12.28-0.601,18.32c3.83-6.39,8.49-12.23,12.73-18.34
		c3.76,0.02,7.52,0.02,11.28,0.02c0.02,7.48-0.03,14.96,0.029,22.44c-2.31,0.07-4.619,0-6.92,0.06c0.28-6.07-0.729-12.28,0.67-18.25
		c-4.029,6.23-8.55,12.14-12.79,18.23c-3.77,0-7.54,0-11.3-0.01C560.75,122.86,560.75,115.37,560.76,107.88z"/>
	<path fill="#898989" d="M600.77,107.88c8.7-0.01,17.4-0.01,26.101,0c0,7.49,0,14.98,0,22.47c-2.311,0.01-4.61,0.01-6.9,0.01
		c-0.02-5.56,0-11.12-0.01-16.67c-4.09-0.01-8.18-0.01-12.26,0c-0.26,4.65,0.08,9.62-1.99,13.93c-1.5,3.1-5.34,2.73-8.21,2.81
		c-0.01-1.85-0.01-3.69,0.01-5.53c0.96-0.68,2.62-0.92,2.76-2.36C600.95,117.69,600.64,112.76,600.77,107.88z"/>
	<path fill="#898989" d="M633.26,107.88c2.29,0,4.59,0,6.9,0c0,1.83,0.01,3.67,0.02,5.51c5.24,0.16,10.58-0.51,15.75,0.6
		c2.67,0.6,3.54,3.59,3.71,5.98c0.13,2.77,0.21,5.83-1.37,8.25c-1.47,1.91-4.149,1.86-6.31,2.07c-6.229,0.17-12.46,0.01-18.69,0.07
		C633.24,122.87,633.26,115.37,633.26,107.88 M640.17,119.19c-0.01,1.78-0.01,3.56,0,5.34c3.58-0.06,7.17,0.17,10.75-0.1
		c2.33-0.14,2.521-3.94,0.79-4.99C647.89,118.88,644.01,119.3,640.17,119.19z"/>
	<path fill="#898989" d="M698.22,107.88c2.29,0,4.59,0,6.9,0c-0.01,1.83,0,3.67,0.02,5.5c4.96,0.12,9.98-0.36,14.91,0.42
		c2.2,0.23,3.84,2.09,4.17,4.21c0.59,3.18,0.681,6.66-0.689,9.65c-1.24,2.37-4.25,2.43-6.561,2.63c-6.239,0.19-12.489,0-18.729,0.08
		C698.19,122.87,698.22,115.38,698.22,107.88 M705.13,119.19c-0.02,1.78-0.01,3.56,0,5.34c3.61-0.07,7.24,0.19,10.851-0.12
		c2.399-0.17,2.399-4.84,0.01-5.1C712.38,118.99,708.74,119.25,705.13,119.19z"/>
	<path fill="#898989" d="M728.38,107.93c2.311-0.05,4.62-0.04,6.94-0.07c0,7.5,0,15,0,22.5c-2.311,0-4.61,0-6.9,0
		C728.39,122.89,728.45,115.41,728.38,107.93z"/>
	<path fill="#898989" d="M740.04,107.88c2.3,0,4.6,0,6.91,0c-0.32,6.08,0.75,12.31-0.75,18.27c4.04-6.25,8.58-12.17,12.84-18.27
		c3.77-0.01,7.54-0.01,11.32,0c0,7.49,0,14.98,0,22.48c-2.311,0-4.61,0-6.9,0c0.08-6.04-0.26-12.09,0.28-18.11
		c-3.55,6.41-8.311,12.06-12.41,18.12c-3.771-0.01-7.53-0.01-11.29-0.01C740.04,122.86,740.04,115.37,740.04,107.88z"/>
	<path fill="#898989" d="M793.31,107.88c2.29,0,4.601,0,6.91,0c0,5.55,0,11.09,0,16.64c4.71,0.02,9.42,0.01,14.141,0.01
		c0.01-5.55,0.01-11.09,0-16.64c2.3-0.02,4.6,0,6.909-0.02c0.011,5.55,0,11.1,0.011,16.65c0.55,0.01,1.649,0.03,2.2,0.04
		c-0.011,3.13-0.011,6.27-0.011,9.41c-2.26-0.01-4.51-0.01-6.76,0c-0.43-1.29,0.44-3.88-1.72-3.56c-7.221-0.16-14.45,0-21.67-0.05
		C793.29,122.87,793.32,115.38,793.31,107.88z"/>
	<path fill="#898989" d="M828.42,107.91c8.07-0.08,16.14-0.02,24.21-0.03c0,1.81,0,3.62,0,5.43c-5.76,0-11.53-0.01-17.29,0.01
		c0,1.03,0.01,2.07,0.04,3.11c5.48-0.01,10.97,0,16.47-0.01c-0.01,1.8-0.01,3.6,0,5.4c-5.5,0.01-11-0.01-16.5,0.02
		c0,0.76,0,2.29,0,3.06c5.761,0.02,11.521,0,17.28,0.01c0,1.81,0,3.63,0,5.45c-8.06,0.01-16.12-0.01-24.18,0
		C828.42,122.88,828.47,115.4,828.42,107.91z"/>
	<path fill="#898989" d="M893.4,107.95c8.92-0.16,17.85-0.04,26.77-0.07c0,1.93-0.01,3.86,0,5.8c-3.3,0.01-6.59,0-9.88,0
		c-0.03,5.56-0.01,11.12-0.021,16.67c-2.3,0.01-4.6,0.01-6.89,0.01c-0.03-5.56-0.01-11.11-0.02-16.67
		c-3.311-0.01-6.61-0.01-9.9-0.01C893.41,111.77,893.4,109.86,893.4,107.95z"/>
	<path fill="#898989" d="M926.22,107.88c6.261,0.04,12.53-0.1,18.79,0.06c2.49,0.12,5.8,0.38,6.82,3.14
		c1.16,3.4,1.18,7.28-0.05,10.66c-0.721,1.92-2.83,2.66-4.69,2.85c-4.64,0.48-9.31,0.17-13.96,0.25c-0.02,1.84-0.01,3.69-0.01,5.53
		c-2.33-0.03-4.64-0.02-6.95-0.06C926.26,122.83,926.19,115.36,926.22,107.88 M933.13,113.69c-0.02,1.78-0.02,3.56,0,5.34
		c3.87-0.14,7.811,0.38,11.65-0.31c1.489-1.15,1.47-4.51-0.69-4.9C940.45,113.49,936.78,113.75,933.13,113.69z"/>
</g>
<g id="_x23_5b5b5bff">
	<path fill="#5B5B5B" d="M317.39,152.74c1.98,0.02,3.96,0.039,5.95,0.1c-2.49,1.5-5.03,2.91-7.58,4.28
		C316.3,155.66,316.85,154.2,317.39,152.74z"/>
	<path fill="#5B5B5B" d="M245.52,165.42c3.8-7.641,12.06-12.46,20.53-12.57c11.78-0.189,23.57-0.05,35.35-0.06
		c-6.45,3.59-13.37,6.681-18.79,11.819c-2.63,2.4-3.9,5.83-4.51,9.261c-3.91-0.08-8.68,0.771-10.22,4.94
		c-2.36,6.789-0.83,14.149-1.28,21.18c-0.01,5.27-0.54,12.55,5.16,15.199c5.46,1.721,11.33,0.461,16.95,0.9
		c2.73-0.02,5.47,0.2,8.18-0.189c0.59,0.02,1.77,0.039,2.36,0.05c0.1-4.89-0.51-10.15,2.26-14.49c5.62-9.61,14.6-16.569,23.01-23.62
		c0.01,12.74-0.01,25.471,0.01,38.21c7.83-0.04,15.67,0.08,23.5-0.05c2.79,0,5.8-1.07,7.27-3.59c2.59-4.34,1.77-9.631,1.91-14.439
		c-0.19-5.641,0.46-11.351-0.49-16.941c-0.62-3.739-3.9-6.739-7.69-6.93c-6.61-0.3-13.24-0.02-19.86-0.119
		c4.51-3.721,9.18-7.28,13.18-11.57c2.49-2.58,3.18-6.221,3.74-9.631c7.02,0.131,14.41-0.799,21.03,2.091
		c6.17,2.5,10.73,8.03,12.87,14.239c3.46,9.591,2.21,19.931,2.46,29.91c0.13,9.131-0.31,18.971-5.61,26.791
		c-4.09,6.25-11.47,9.77-18.83,9.989c-11.17,0.28-22.36-0.11-33.54,0.2c0.01,1.83,0.03,3.66,0.08,5.5c-8.41,0.01-16.82-0.01-25.24,0
		c-0.01-1.87-0.02-3.74-0.02-5.6c-11.13-0.08-22.26,0.109-33.39-0.101c-7.59-0.19-15.17-3.92-19.22-10.46
		c-5.22-8.07-5.46-18.061-5.3-27.35C241.57,187.09,240.21,175.43,245.52,165.42z"/>
	<path fill="#5B5B5B" d="M863.89,157.9c5.58-2.791,11.9-3.521,18.021-4.23c14.34-1.27,28.78-1.199,43.13-0.311
		c6.979,0.621,14.16,1.19,20.68,3.961c3.19,1.31,5.37,4.24,6.53,7.41c2.47,6.58,2.62,13.72,2.78,20.67
		c-8.37,0.01-16.73,0.01-25.101,0c-0.26-3.57-0.949-8.2-4.93-9.44c-6.43-2.069-13.31-1.86-19.98-2.021
		c-6.779,0.16-13.76-0.14-20.31,1.9c-3.07,0.96-3.63,4.561-4.16,7.28c-1.03,7.55-0.99,15.239-0.16,22.81
		c0.54,2.98,0.88,7.221,4.42,8.15c6.881,1.92,14.12,1.59,21.2,1.73c6.33-0.19,12.851,0.069,18.98-1.761
		c4.05-1.35,4.609-6.11,4.99-9.739c8.34,0.08,16.689,0.02,25.029,0.029c-0.18,7.74-0.22,15.881-3.68,22.98
		c-2.19,4.729-7.63,6.24-12.28,7.26c-11.189,2.23-22.649,2.33-34.01,2.449c-11.32-0.119-22.76-0.18-33.87-2.569
		c-4.45-1.03-9.49-2.61-11.689-7.01c-3.83-7.511-4.24-16.171-4.75-24.431c-0.28-10.979-0.36-22.1,1.869-32.899
		C857.69,165.5,859.29,160.16,863.89,157.9z"/>
	<path fill="#5B5B5B" d="M396.5,153.859c29.43,0,58.86,0,88.29,0.011c0,6.61,0,13.22,0,19.83c-21.021,0-42.04-0.011-63.06,0
		c-0.011,3.79-0.011,7.569,0,11.36c20.069,0.01,40.13,0,60.199,0c-0.01,6.58,0,13.16-0.01,19.739c-20.06-0.01-40.13-0.01-60.189,0
		c-0.011,3.74-0.011,7.49,0,11.24c21.02,0.021,42.039,0,63.069,0.01c-0.01,6.61-0.01,13.22-0.01,19.841
		c-29.43,0.01-58.85-0.011-88.28,0C396.49,208.55,396.49,181.21,396.5,153.859z"/>
	<path fill="#5B5B5B" d="M499.72,153.87c8.41-0.011,16.811-0.011,25.221-0.011c0.01,9.641-0.011,19.271,0.01,28.9
		c18.149,0.01,36.31,0,54.46,0.01c0.02-9.629,0-19.26,0.01-28.899c8.41-0.011,16.82-0.03,25.23,0.01c-0.011,27.33-0.011,54.67,0,82
		c-8.41,0.021-16.82,0.021-25.23,0c0-10.63,0-21.25,0-31.88c-18.16,0-36.32,0-54.47,0c-0.01,10.63,0,21.26-0.01,31.891
		c-8.41,0-16.811,0-25.221,0C499.72,208.55,499.71,181.21,499.72,153.87z"/>
	<path fill="#5B5B5B" d="M620.31,153.88c8.421-0.01,16.841-0.069,25.261,0.03c-0.051,18.029-0.04,36.07-0.011,54.1
		c0.23,3.95-1.81,7.5-2.579,11.28c2.42-1.479,3.13-4.399,4.77-6.55c14-19.631,27.91-39.32,41.97-58.91
		c13.75,0.07,27.5,0.01,41.261,0.04c0,27.34,0.01,54.68,0,82.021c-8.41,0-16.82,0-25.221,0c-0.02-18.301,0-36.611-0.01-54.91
		c-0.13-3.73,2.08-6.98,2.39-10.65c-2.59,2.48-3.77,5.99-6.029,8.74c-13.521,18.91-27.011,37.84-40.471,56.8
		c-13.77,0.04-27.55,0.021-41.319,0.01C620.32,208.55,620.32,181.21,620.31,153.88z"/>
	<path fill="#5B5B5B" d="M745.76,153.87c8.4-0.011,16.811-0.011,25.221,0c0.01,9.59-0.011,19.19,0.01,28.78
		c4.37,0.01,8.75-0.01,13.13,0.02c9.62-9.561,19.14-19.23,28.75-28.811c11.52,0.011,23.04-0.02,34.56,0.011
		c-13.6,13.069-27.27,26.06-40.89,39.11c15.31,14.319,30.65,28.59,45.96,42.91c-12.14,0.01-24.29-0.011-36.43,0.01
		c-10.66-10.67-21.261-21.391-31.94-32.041c-4.38,0.021-8.77,0.011-13.14,0.021c-0.021,10.67,0,21.341-0.01,32.011
		c-8.41,0-16.82,0-25.221,0C745.75,208.55,745.75,181.21,745.76,153.87z"/>
</g>
<g>
	<path fill="#5B5B5B" d="M249.06,260.8h21.525v22.96h3.075v11.07h-6.97l-0.41-5.33h-15.99l-0.41,5.33h-6.97v-11.07h2.665
		c0.437-0.492,0.82-1.052,1.148-1.681c0.3-0.547,0.58-1.195,0.84-1.947c0.259-0.752,0.417-1.593,0.472-2.521L249.06,260.8z
		 M263.205,283.76v-17.22h-7.585l-0.615,10.25c-0.055,1.039-0.205,1.982-0.451,2.829c-0.246,0.848-0.506,1.585-0.779,2.214
		c-0.301,0.711-0.643,1.353-1.025,1.927H263.205z"/>
	<path fill="#5B5B5B" d="M302.77,281.71c0,2.87-0.649,4.955-1.948,6.253s-3.382,1.947-6.252,1.947h-10.25
		c-2.87,0-4.955-0.649-6.252-1.947c-1.298-1.298-1.947-3.383-1.947-6.253v-13.12c0-2.87,0.649-4.954,1.947-6.252
		c1.298-1.298,3.383-1.948,6.252-1.948h10.25c2.87,0,4.954,0.65,6.252,1.948s1.948,3.382,1.948,6.252V281.71z M295.39,268.59
		c0-1.64-0.82-2.46-2.46-2.46h-6.97c-1.64,0-2.46,0.82-2.46,2.46v13.12c0,1.64,0.82,2.46,2.46,2.46h6.97c1.64,0,2.46-0.82,2.46-2.46
		V268.59z"/>
	<path fill="#5B5B5B" d="M306.87,260.8h16.4c2.679,0,4.646,0.608,5.904,1.824c1.257,1.217,1.886,3.069,1.886,5.556
		c0,1.641-0.355,2.973-1.066,3.998c-0.711,1.024-1.585,1.742-2.624,2.152c0.601,0.164,1.203,0.424,1.804,0.779
		c0.601,0.355,1.127,0.834,1.578,1.435c0.451,0.602,0.82,1.333,1.107,2.193c0.287,0.861,0.43,1.853,0.43,2.973
		c0,2.679-0.629,4.647-1.886,5.904c-1.258,1.257-3.226,1.886-5.904,1.886h-17.63V260.8z M323.68,269c0-1.64-0.82-2.46-2.46-2.46
		h-6.97v5.74h6.97c1.64,0,2.46-0.82,2.46-2.46V269z M324.91,280.48c0-1.641-0.82-2.461-2.46-2.461h-8.2v5.74h8.2
		c1.64,0,2.46-0.819,2.46-2.46V280.48z"/>
	<path fill="#5B5B5B" d="M358.734,289.5h-22.755v-28.7h22.755v5.74h-15.375v5.535h12.095v5.74h-12.095v5.944h15.375V289.5z"/>
	<path fill="#5B5B5B" d="M362.014,260.8h17.22c2.87,0,4.954,0.649,6.252,1.947c1.298,1.299,1.947,3.383,1.947,6.253v4.1
		c0,2.87-0.649,4.955-1.947,6.253c-1.299,1.299-3.383,1.947-6.252,1.947h-9.84v8.2h-7.38V260.8z M380.054,269
		c0-1.64-0.82-2.46-2.46-2.46h-8.2v9.02h8.2c1.64,0,2.46-0.819,2.46-2.46V269z"/>
	<path fill="#5B5B5B" d="M398.504,270.64h9.84c2.87,0,4.954,0.65,6.252,1.948c1.298,1.298,1.947,3.382,1.947,6.252v2.46
		c0,2.87-0.649,4.955-1.947,6.253c-1.299,1.298-3.383,1.947-6.252,1.947h-17.22v-28.7h7.38V270.64z M409.164,278.84
		c0-1.64-0.82-2.46-2.46-2.46h-8.2v7.38h8.2c1.64,0,2.46-0.819,2.46-2.46V278.84z"/>
	<path fill="#5B5B5B" d="M430.894,289.5h-7.38v-22.96h-8.61v-5.74h24.6v5.74h-8.61V289.5z"/>
	<path fill="#5B5B5B" d="M465.129,289.5h-22.755v-28.7h22.755v5.74h-15.375v5.535h12.095v5.74h-12.095v5.944h15.375V289.5z"/>
	<path fill="#5B5B5B" d="M475.379,289.623c-2.679,0-4.647-0.622-5.904-1.867c-1.257-1.245-1.886-3.193-1.886-5.846v-12.991
		c0-2.842,0.649-4.905,1.947-6.19c1.298-1.285,3.383-1.929,6.252-1.929h14.76v5.74h-13.12c-1.64,0-2.46,0.816-2.46,2.448v13.06
		c0,0.626,0.185,1.122,0.554,1.489c0.369,0.367,0.867,0.551,1.496,0.551c0.519,0,1.121,0,1.804,0c0.683,0,1.394,0,2.132,0
		c0.738,0,1.482,0,2.235,0c0.751,0,1.482-0.116,2.193-0.349c1.667,0,3.389,0,5.166,0v5.359c-1.832,0.35-3.649,0.524-5.453,0.524
		c-1.558,0-3.205,0-4.94,0C478.419,289.623,476.827,289.623,475.379,289.623z"/>
	<path fill="#5B5B5B" d="M501.209,270.64h9.84c2.869,0,4.953,0.65,6.252,1.948s1.947,3.382,1.947,6.252v2.46
		c0,2.87-0.648,4.955-1.947,6.253s-3.383,1.947-6.252,1.947h-17.22v-28.7h7.38V270.64z M511.869,278.84c0-1.64-0.82-2.46-2.461-2.46
		h-8.199v7.38h8.199c1.641,0,2.461-0.819,2.461-2.46V278.84z"/>
	<path fill="#5B5B5B" d="M560.247,289.5h-7.38v-22.96h-10.25v22.96h-7.38v-28.7h25.01V289.5z"/>
	<path fill="#5B5B5B" d="M565.167,260.8h17.22c2.87,0,4.954,0.649,6.253,1.947c1.298,1.299,1.947,3.383,1.947,6.253v4.1
		c0,2.87-0.649,4.955-1.947,6.253c-1.299,1.299-3.383,1.947-6.253,1.947h-9.84v8.2h-7.38V260.8z M583.207,269
		c0-1.64-0.82-2.46-2.46-2.46h-8.2v9.02h8.2c1.64,0,2.46-0.819,2.46-2.46V269z"/>
	<path fill="#5B5B5B" d="M620.107,281.71c0,2.87-0.649,4.955-1.947,6.253c-1.299,1.298-3.383,1.947-6.253,1.947h-10.25
		c-2.87,0-4.954-0.649-6.252-1.947c-1.299-1.298-1.948-3.383-1.948-6.253v-13.12c0-2.87,0.649-4.954,1.948-6.252
		c1.298-1.298,3.382-1.948,6.252-1.948h10.25c2.87,0,4.954,0.65,6.253,1.948c1.298,1.298,1.947,3.382,1.947,6.252V281.71z
		 M612.728,268.59c0-1.64-0.82-2.46-2.46-2.46h-6.97c-1.641,0-2.461,0.82-2.461,2.46v13.12c0,1.64,0.82,2.46,2.461,2.46h6.97
		c1.64,0,2.46-0.82,2.46-2.46V268.59z"/>
	<path fill="#5B5B5B" d="M656.597,279.25c0,2.87-0.649,4.955-1.947,6.253c-1.299,1.298-3.383,1.947-6.252,1.947h-4.92v2.87h-7.381
		v-2.87h-4.92c-2.87,0-4.954-0.649-6.252-1.947c-1.299-1.298-1.947-3.383-1.947-6.253v-8.2c0-2.87,0.648-4.954,1.947-6.252
		c1.298-1.298,3.382-1.948,6.252-1.948h4.92v-2.869h7.381v2.869h4.92c2.869,0,4.953,0.65,6.252,1.948
		c1.298,1.298,1.947,3.382,1.947,6.252V279.25z M630.357,279.25c0,1.64,0.819,2.46,2.46,2.46h3.689v-13.12h-3.689
		c-1.641,0-2.46,0.82-2.46,2.46V279.25z M649.217,271.05c0-1.64-0.819-2.46-2.46-2.46h-3.689v13.12h3.689
		c1.641,0,2.46-0.82,2.46-2.46V271.05z"/>
	<path fill="#5B5B5B" d="M683.041,289.5h-22.755v-28.7h22.755v5.74h-15.375v5.535h12.095v5.74h-12.095v5.944h15.375V289.5z"/>
	<path fill="#5B5B5B" d="M693.291,289.623c-2.679,0-4.646-0.622-5.903-1.867c-1.258-1.245-1.887-3.193-1.887-5.846v-12.991
		c0-2.842,0.649-4.905,1.948-6.19c1.298-1.285,3.382-1.929,6.252-1.929h14.76v5.74h-13.119c-1.641,0-2.461,0.816-2.461,2.448v13.06
		c0,0.626,0.185,1.122,0.554,1.489s0.867,0.551,1.497,0.551c0.519,0,1.12,0,1.804,0c0.683,0,1.394,0,2.132,0s1.482,0,2.234,0
		s1.482-0.116,2.193-0.349c1.667,0,3.39,0,5.166,0v5.359c-1.831,0.35-3.648,0.524-5.452,0.524c-1.559,0-3.205,0-4.941,0
		C696.332,289.623,694.74,289.623,693.291,289.623z"/>
	<path fill="#5B5B5B" d="M718.711,289.623c-2.679,0-4.646-0.622-5.903-1.867c-1.258-1.245-1.887-3.193-1.887-5.846v-12.991
		c0-2.842,0.649-4.905,1.948-6.19c1.298-1.285,3.382-1.929,6.252-1.929h14.76v5.74h-13.119c-1.641,0-2.461,0.816-2.461,2.448v13.06
		c0,0.626,0.185,1.122,0.554,1.489s0.867,0.551,1.497,0.551c0.519,0,1.12,0,1.804,0c0.683,0,1.394,0,2.132,0s1.482,0,2.234,0
		s1.482-0.116,2.193-0.349c1.667,0,3.39,0,5.166,0v5.359c-1.831,0.35-3.648,0.524-5.452,0.524c-1.559,0-3.205,0-4.941,0
		C721.752,289.623,720.16,289.623,718.711,289.623z"/>
	<path fill="#5B5B5B" d="M762.171,289.5h-7.38v-17.63l-9.84,17.63h-7.79v-28.7h7.38v17.63l9.84-17.63h7.79V289.5z"/>
	<path fill="#5B5B5B" d="M792.921,281.71c0,2.87-0.649,4.955-1.947,6.253c-1.299,1.298-3.383,1.947-6.253,1.947h-10.25
		c-2.87,0-4.954-0.649-6.252-1.947c-1.299-1.298-1.948-3.383-1.948-6.253v-13.12c0-2.87,0.649-4.954,1.948-6.252
		c1.298-1.298,3.382-1.948,6.252-1.948h10.25c2.87,0,4.954,0.65,6.253,1.948c1.298,1.298,1.947,3.382,1.947,6.252V281.71z
		 M785.541,268.59c0-1.64-0.82-2.46-2.46-2.46h-6.97c-1.641,0-2.461,0.82-2.461,2.46v13.12c0,1.64,0.82,2.46,2.461,2.46h6.97
		c1.64,0,2.46-0.82,2.46-2.46V268.59z"/>
	<path fill="#5B5B5B" d="M822.03,289.5h-7.38v-11.685H804.4V289.5h-7.38v-28.7h7.38v11.275h10.25V260.8h7.38V289.5z"/>
	<path fill="#5B5B5B" d="M832.075,289.5h-7.995l10.865-28.7h8.2l10.864,28.7h-7.994l-1.846-5.125h-10.25L832.075,289.5z
		 M835.766,279.045h6.56l-3.28-9.635L835.766,279.045z"/>
	<path fill="#5B5B5B" d="M864.67,283.555c-0.138,1.969-0.766,3.52-1.887,4.654c-1.121,1.134-2.61,1.701-4.469,1.701
		c-0.52,0-1.032-0.021-1.537-0.062c-0.506-0.041-0.964-0.089-1.374-0.144c-0.492-0.055-0.957-0.123-1.394-0.205v-5.535h1.845
		c0.519,0,0.949-0.178,1.292-0.533c0.341-0.354,0.525-0.792,0.553-1.312l1.23-21.32h22.755v28.7h-7.38v-22.96h-8.61L864.67,283.555z
		"/>
	<path fill="#5B5B5B" d="M891.729,289.5h-7.995l10.865-28.7h8.2l10.864,28.7h-7.994l-1.846-5.125h-10.25L891.729,289.5z
		 M895.42,279.045h6.56l-3.28-9.635L895.42,279.045z"/>
	<path fill="#5B5B5B" d="M940.313,273.51l-5.739,10.25h-5.74l-5.74-10.25v15.99h-7.38v-28.7h7.79l8.2,15.17l8.2-15.17h7.79v28.7
		h-7.381V273.51z"/>
	<path fill="#5B5B5B" d="M953.024,280.89l-0.82-8.609V260.8h7.38v11.48l-0.819,8.609H953.024z M952.204,283.35h7.38v6.15h-7.38
		V283.35z"/>
</g>
</svg>
